<svg id="visual" viewBox="0 0 900 450" width="900" height="450" xmlns="http://www.w3.org/2000/svg" xmlns:xlink="http://www.w3.org/1999/xlink" version="1.1"><rect x="0" y="0" width="900" height="450" fill="#001220"></rect><path d="M0 356L6.5 354.3C13 352.7 26 349.3 39 351.2C52 353 65 360 78 358.7C91 357.3 104 347.7 117.2 347.5C130.3 347.3 143.7 356.7 156.8 362.8C170 369 183 372 196 372.7C209 373.3 222 371.7 235 367.2C248 362.7 261 355.3 274 355.7C287 356 300 364 313 367.5C326 371 339 370 352 366.5C365 363 378 357 391 353.3C404 349.7 417 348.3 430.2 346.7C443.3 345 456.7 343 469.8 345.7C483 348.3 496 355.7 509 356C522 356.3 535 349.7 548 352.5C561 355.3 574 367.7 587 370.3C600 373 613 366 626 359.2C639 352.3 652 345.7 665 348.8C678 352 691 365 704 365.8C717 366.7 730 355.3 743.2 355.5C756.3 355.7 769.7 367.3 782.8 368C796 368.7 809 358.3 822 356.8C835 355.3 848 362.7 861 365.2C874 367.7 887 365.3 893.5 364.2L900 363L900 451L893.5 451C887 451 874 451 861 451C848 451 835 451 822 451C809 451 796 451 782.8 451C769.7 451 756.3 451 743.2 451C730 451 717 451 704 451C691 451 678 451 665 451C652 451 639 451 626 451C613 451 600 451 587 451C574 451 561 451 548 451C535 451 522 451 509 451C496 451 483 451 469.8 451C456.7 451 443.3 451 430.2 451C417 451 404 451 391 451C378 451 365 451 352 451C339 451 326 451 313 451C300 451 287 451 274 451C261 451 248 451 235 451C222 451 209 451 196 451C183 451 170 451 156.8 451C143.7 451 130.3 451 117.2 451C104 451 91 451 78 451C65 451 52 451 39 451C26 451 13 451 6.5 451L0 451Z" fill="#fa7268"></path><path d="M0 366L6.5 369C13 372 26 378 39 380C52 382 65 380 78 380.3C91 380.7 104 383.3 117.2 383.8C130.3 384.3 143.7 382.7 156.8 380.8C170 379 183 377 196 377C209 377 222 379 235 381.8C248 384.7 261 388.3 274 388.8C287 389.3 300 386.7 313 386.7C326 386.7 339 389.3 352 390C365 390.7 378 389.3 391 388.2C404 387 417 386 430.2 386.8C443.3 387.7 456.7 390.3 469.8 387.2C483 384 496 375 509 373.8C522 372.7 535 379.3 548 379.2C561 379 574 372 587 372.7C600 373.3 613 381.7 626 384.3C639 387 652 384 665 382C678 380 691 379 704 376.5C717 374 730 370 743.2 367.5C756.3 365 769.7 364 782.8 366.3C796 368.7 809 374.3 822 376.5C835 378.7 848 377.3 861 374.7C874 372 887 368 893.5 366L900 364L900 451L893.5 451C887 451 874 451 861 451C848 451 835 451 822 451C809 451 796 451 782.8 451C769.7 451 756.3 451 743.2 451C730 451 717 451 704 451C691 451 678 451 665 451C652 451 639 451 626 451C613 451 600 451 587 451C574 451 561 451 548 451C535 451 522 451 509 451C496 451 483 451 469.8 451C456.7 451 443.3 451 430.2 451C417 451 404 451 391 451C378 451 365 451 352 451C339 451 326 451 313 451C300 451 287 451 274 451C261 451 248 451 235 451C222 451 209 451 196 451C183 451 170 451 156.8 451C143.7 451 130.3 451 117.2 451C104 451 91 451 78 451C65 451 52 451 39 451C26 451 13 451 6.5 451L0 451Z" fill="#ef5f67"></path><path d="M0 406L6.5 403.7C13 401.3 26 396.7 39 394.8C52 393 65 394 78 391.3C91 388.7 104 382.3 117.2 381.8C130.3 381.3 143.7 386.7 156.8 392C170 397.3 183 402.7 196 405.3C209 408 222 408 235 404.8C248 401.7 261 395.3 274 394.3C287 393.3 300 397.7 313 399.2C326 400.7 339 399.3 352 397.8C365 396.3 378 394.7 391 396.5C404 398.3 417 403.7 430.2 404.5C443.3 405.3 456.7 401.7 469.8 400.7C483 399.7 496 401.3 509 401.5C522 401.7 535 400.3 548 399.3C561 398.3 574 397.7 587 395.7C600 393.7 613 390.3 626 387C639 383.7 652 380.3 665 382.5C678 384.7 691 392.3 704 397.7C717 403 730 406 743.2 405.2C756.3 404.3 769.7 399.7 782.8 398.7C796 397.7 809 400.3 822 399.2C835 398 848 393 861 393.8C874 394.7 887 401.3 893.5 404.7L900 408L900 451L893.5 451C887 451 874 451 861 451C848 451 835 451 822 451C809 451 796 451 782.8 451C769.7 451 756.3 451 743.2 451C730 451 717 451 704 451C691 451 678 451 665 451C652 451 639 451 626 451C613 451 600 451 587 451C574 451 561 451 548 451C535 451 522 451 509 451C496 451 483 451 469.8 451C456.7 451 443.3 451 430.2 451C417 451 404 451 391 451C378 451 365 451 352 451C339 451 326 451 313 451C300 451 287 451 274 451C261 451 248 451 235 451C222 451 209 451 196 451C183 451 170 451 156.8 451C143.7 451 130.3 451 117.2 451C104 451 91 451 78 451C65 451 52 451 39 451C26 451 13 451 6.5 451L0 451Z" fill="#e34c67"></path><path d="M0 396L6.5 396.5C13 397 26 398 39 401C52 404 65 409 78 409.8C91 410.7 104 407.3 117.2 407.7C130.3 408 143.7 412 156.8 413.2C170 414.3 183 412.7 196 410.3C209 408 222 405 235 403C248 401 261 400 274 401C287 402 300 405 313 406.3C326 407.7 339 407.3 352 405.7C365 404 378 401 391 402.8C404 404.7 417 411.3 430.2 415.3C443.3 419.3 456.7 420.7 469.8 418.2C483 415.7 496 409.3 509 405.8C522 402.3 535 401.7 548 401C561 400.3 574 399.7 587 402C600 404.3 613 409.7 626 410C639 410.3 652 405.7 665 407.2C678 408.7 691 416.3 704 418.2C717 420 730 416 743.2 412.8C756.3 409.7 769.7 407.3 782.8 408.5C796 409.7 809 414.3 822 417C835 419.7 848 420.3 861 417C874 413.7 887 406.3 893.5 402.7L900 399L900 451L893.5 451C887 451 874 451 861 451C848 451 835 451 822 451C809 451 796 451 782.8 451C769.7 451 756.3 451 743.2 451C730 451 717 451 704 451C691 451 678 451 665 451C652 451 639 451 626 451C613 451 600 451 587 451C574 451 561 451 548 451C535 451 522 451 509 451C496 451 483 451 469.8 451C456.7 451 443.3 451 430.2 451C417 451 404 451 391 451C378 451 365 451 352 451C339 451 326 451 313 451C300 451 287 451 274 451C261 451 248 451 235 451C222 451 209 451 196 451C183 451 170 451 156.8 451C143.7 451 130.3 451 117.2 451C104 451 91 451 78 451C65 451 52 451 39 451C26 451 13 451 6.5 451L0 451Z" fill="#d53867"></path><path d="M0 426L6.5 425.5C13 425 26 424 39 424.5C52 425 65 427 78 427.3C91 427.7 104 426.3 117.2 424.8C130.3 423.3 143.7 421.7 156.8 421.7C170 421.7 183 423.3 196 424C209 424.7 222 424.3 235 423.7C248 423 261 422 274 424.2C287 426.3 300 431.7 313 433.3C326 435 339 433 352 430.3C365 427.7 378 424.3 391 424.2C404 424 417 427 430.2 429.3C443.3 431.7 456.7 433.3 469.8 434.5C483 435.7 496 436.3 509 433.5C522 430.7 535 424.3 548 422.2C561 420 574 422 587 423.5C600 425 613 426 626 428.2C639 430.3 652 433.7 665 432.3C678 431 691 425 704 421.5C717 418 730 417 743.2 419.7C756.3 422.3 769.7 428.7 782.8 430C796 431.3 809 427.7 822 427.8C835 428 848 432 861 432C874 432 887 428 893.5 426L900 424L900 451L893.5 451C887 451 874 451 861 451C848 451 835 451 822 451C809 451 796 451 782.8 451C769.7 451 756.3 451 743.2 451C730 451 717 451 704 451C691 451 678 451 665 451C652 451 639 451 626 451C613 451 600 451 587 451C574 451 561 451 548 451C535 451 522 451 509 451C496 451 483 451 469.8 451C456.7 451 443.3 451 430.2 451C417 451 404 451 391 451C378 451 365 451 352 451C339 451 326 451 313 451C300 451 287 451 274 451C261 451 248 451 235 451C222 451 209 451 196 451C183 451 170 451 156.8 451C143.7 451 130.3 451 117.2 451C104 451 91 451 78 451C65 451 52 451 39 451C26 451 13 451 6.5 451L0 451Z" fill="#c62368"></path></svg>