<svg id="visual" viewBox="0 0 900 450" width="900" height="450" xmlns="http://www.w3.org/2000/svg" xmlns:xlink="http://www.w3.org/1999/xlink" version="1.1"><rect x="0" y="0" width="900" height="450" fill="#001220"></rect><path d="M0 232L6.5 228C13 224 26 216 39 220.3C52 224.7 65 241.3 78 238.3C91 235.3 104 212.7 117.2 212.2C130.3 211.7 143.7 233.3 156.8 247.5C170 261.7 183 268.3 196 269.8C209 271.3 222 267.7 235 257.3C248 247 261 230 274 231C287 232 300 251 313 259.2C326 267.3 339 264.7 352 256.5C365 248.3 378 234.7 391 226.2C404 217.7 417 214.3 430.2 210.2C443.3 206 456.7 201 469.8 207.2C483 213.3 496 230.7 509 231.5C522 232.3 535 216.7 548 223.2C561 229.7 574 258.3 587 264.5C600 270.7 613 254.3 626 238.3C639 222.3 652 206.7 665 214.2C678 221.7 691 252.3 704 254.3C717 256.3 730 229.7 743.2 230.2C756.3 230.7 769.7 258.3 782.8 260C796 261.7 809 237.3 822 233.8C835 230.3 848 247.7 861 253.5C874 259.3 887 253.7 893.5 250.8L900 248L900 451L893.5 451C887 451 874 451 861 451C848 451 835 451 822 451C809 451 796 451 782.8 451C769.7 451 756.3 451 743.2 451C730 451 717 451 704 451C691 451 678 451 665 451C652 451 639 451 626 451C613 451 600 451 587 451C574 451 561 451 548 451C535 451 522 451 509 451C496 451 483 451 469.8 451C456.7 451 443.3 451 430.2 451C417 451 404 451 391 451C378 451 365 451 352 451C339 451 326 451 313 451C300 451 287 451 274 451C261 451 248 451 235 451C222 451 209 451 196 451C183 451 170 451 156.8 451C143.7 451 130.3 451 117.2 451C104 451 91 451 78 451C65 451 52 451 39 451C26 451 13 451 6.5 451L0 451Z" fill="#fa7268"></path><path d="M0 254L6.5 261.3C13 268.7 26 283.3 39 288.2C52 293 65 288 78 288.7C91 289.3 104 295.7 117.2 297C130.3 298.3 143.7 294.7 156.8 290.5C170 286.3 183 281.7 196 281.7C209 281.7 222 286.3 235 293C248 299.7 261 308.3 274 309.2C287 310 300 303 313 302.8C326 302.7 339 309.3 352 311.2C365 313 378 310 391 307.3C404 304.7 417 302.3 430.2 304.2C443.3 306 456.7 312 469.8 304.3C483 296.7 496 275.3 509 272.5C522 269.7 535 285.3 548 285.3C561 285.3 574 269.7 587 271.5C600 273.3 613 292.7 626 298.8C639 305 652 298 665 293.2C678 288.3 691 285.7 704 279.5C717 273.3 730 263.7 743.2 257.8C756.3 252 769.7 250 782.8 255.7C796 261.3 809 274.7 822 279.7C835 284.7 848 281.3 861 275.3C874 269.3 887 260.7 893.5 256.3L900 252L900 451L893.5 451C887 451 874 451 861 451C848 451 835 451 822 451C809 451 796 451 782.8 451C769.7 451 756.3 451 743.2 451C730 451 717 451 704 451C691 451 678 451 665 451C652 451 639 451 626 451C613 451 600 451 587 451C574 451 561 451 548 451C535 451 522 451 509 451C496 451 483 451 469.8 451C456.7 451 443.3 451 430.2 451C417 451 404 451 391 451C378 451 365 451 352 451C339 451 326 451 313 451C300 451 287 451 274 451C261 451 248 451 235 451C222 451 209 451 196 451C183 451 170 451 156.8 451C143.7 451 130.3 451 117.2 451C104 451 91 451 78 451C65 451 52 451 39 451C26 451 13 451 6.5 451L0 451Z" fill="#ef5f67"></path><path d="M0 350L6.5 344.3C13 338.7 26 327.3 39 323C52 318.7 65 321.3 78 315.2C91 309 104 294 117.2 292.7C130.3 291.3 143.7 303.7 156.8 316.2C170 328.7 183 341.3 196 347.7C209 354 222 354 235 346.5C248 339 261 324 274 321.7C287 319.3 300 329.7 313 333.2C326 336.7 339 333.3 352 329.5C365 325.7 378 321.3 391 325.7C404 330 417 343 430.2 345.3C443.3 347.7 456.7 339.3 469.8 336.8C483 334.3 496 337.7 509 337.8C522 338 535 335 548 332.8C561 330.7 574 329.3 587 324.7C600 320 613 312 626 304.2C639 296.3 652 288.7 665 294C678 299.3 691 317.7 704 330.2C717 342.7 730 349.3 743.2 347.3C756.3 345.3 769.7 334.7 782.8 332.2C796 329.7 809 335.3 822 332.5C835 329.7 848 318.3 861 320.3C874 322.3 887 337.7 893.5 345.3L900 353L900 451L893.5 451C887 451 874 451 861 451C848 451 835 451 822 451C809 451 796 451 782.8 451C769.7 451 756.3 451 743.2 451C730 451 717 451 704 451C691 451 678 451 665 451C652 451 639 451 626 451C613 451 600 451 587 451C574 451 561 451 548 451C535 451 522 451 509 451C496 451 483 451 469.8 451C456.7 451 443.3 451 430.2 451C417 451 404 451 391 451C378 451 365 451 352 451C339 451 326 451 313 451C300 451 287 451 274 451C261 451 248 451 235 451C222 451 209 451 196 451C183 451 170 451 156.8 451C143.7 451 130.3 451 117.2 451C104 451 91 451 78 451C65 451 52 451 39 451C26 451 13 451 6.5 451L0 451Z" fill="#e34c67"></path><path d="M0 325L6.5 326.3C13 327.7 26 330.3 39 337.2C52 344 65 355 78 356.7C91 358.3 104 350.7 117.2 351.7C130.3 352.7 143.7 362.3 156.8 365.3C170 368.3 183 364.7 196 359.3C209 354 222 347 235 342.3C248 337.7 261 335.3 274 337.5C287 339.7 300 346.3 313 349.2C326 352 339 351 352 347.3C365 343.7 378 337.3 391 341.7C404 346 417 361 430.2 370.3C443.3 379.7 456.7 383.3 469.8 377.5C483 371.7 496 356.3 509 348.2C522 340 535 339 548 337.3C561 335.7 574 333.3 587 338.7C600 344 613 357 626 358C639 359 652 348 665 351.3C678 354.7 691 372.3 704 376.5C717 380.7 730 371.3 743.2 364.2C756.3 357 769.7 352 782.8 354.8C796 357.7 809 368.3 822 374.3C835 380.3 848 381.7 861 374C874 366.3 887 349.7 893.5 341.3L900 333L900 451L893.5 451C887 451 874 451 861 451C848 451 835 451 822 451C809 451 796 451 782.8 451C769.7 451 756.3 451 743.2 451C730 451 717 451 704 451C691 451 678 451 665 451C652 451 639 451 626 451C613 451 600 451 587 451C574 451 561 451 548 451C535 451 522 451 509 451C496 451 483 451 469.8 451C456.7 451 443.3 451 430.2 451C417 451 404 451 391 451C378 451 365 451 352 451C339 451 326 451 313 451C300 451 287 451 274 451C261 451 248 451 235 451C222 451 209 451 196 451C183 451 170 451 156.8 451C143.7 451 130.3 451 117.2 451C104 451 91 451 78 451C65 451 52 451 39 451C26 451 13 451 6.5 451L0 451Z" fill="#d53867"></path><path d="M0 394L6.5 392.8C13 391.7 26 389.3 39 390.8C52 392.3 65 397.7 78 398.7C91 399.7 104 396.3 117.2 392.8C130.3 389.3 143.7 385.7 156.8 385.7C170 385.7 183 389.3 196 390.8C209 392.3 222 391.7 235 390.2C248 388.7 261 386.3 274 391.2C287 396 300 408 313 412C326 416 339 412 352 405.8C365 399.7 378 391.3 391 390.8C404 390.3 417 397.7 430.2 403.2C443.3 408.7 456.7 412.3 469.8 414.8C483 417.3 496 418.7 509 412C522 405.3 535 390.7 548 385.7C561 380.7 574 385.3 587 389.2C600 393 613 396 626 401.2C639 406.3 652 413.7 665 410.3C678 407 691 393 704 384.7C717 376.3 730 373.7 743.2 380C756.3 386.3 769.7 401.7 782.8 405C796 408.3 809 399.7 822 400C835 400.3 848 409.7 861 409.5C874 409.3 887 399.7 893.5 394.8L900 390L900 451L893.5 451C887 451 874 451 861 451C848 451 835 451 822 451C809 451 796 451 782.8 451C769.7 451 756.3 451 743.2 451C730 451 717 451 704 451C691 451 678 451 665 451C652 451 639 451 626 451C613 451 600 451 587 451C574 451 561 451 548 451C535 451 522 451 509 451C496 451 483 451 469.8 451C456.7 451 443.3 451 430.2 451C417 451 404 451 391 451C378 451 365 451 352 451C339 451 326 451 313 451C300 451 287 451 274 451C261 451 248 451 235 451C222 451 209 451 196 451C183 451 170 451 156.8 451C143.7 451 130.3 451 117.2 451C104 451 91 451 78 451C65 451 52 451 39 451C26 451 13 451 6.5 451L0 451Z" fill="#c62368"></path></svg>